<svg xmlns="http://www.w3.org/2000/svg" width="800" height="320" viewBox="0 0 800 320" font-family="Helvetica, Arial, sans-serif" font-size="11"><rect x="0" y="0" width="800" height="320" fill="#fafafa" stroke="#ddd"/><text x="400" y="22" text-anchor="middle" font-size="14" font-weight="bold" fill="#222">V1072 ContinuityTracker Dashboard · continuity=1.0000</text><text x="400" y="38" text-anchor="middle" font-size="10" fill="#666">identity=id_v1130_default · sessions=6 · entries=252</text><line x1="60" y1="250" x2="770" y2="250" stroke="#888" stroke-width="1"/><text x="52" y="58" text-anchor="end" font-size="10" fill="#444">weight</text><text x="52" y="246" text-anchor="end" font-size="10" fill="#444">dur</text><rect x="62.0" y="231.7" width="114.3" height="18.3" fill="#3b82f6" opacity="0.85"><title>ses_3cd601b51e98 weight=0.167 entries=12</title></rect><rect x="62.0" y="254.0" width="114.3" height="13.3" fill="#10b981" opacity="0.75"><title>ses_3cd601b51e98 duration_s=0.120</title></rect><rect x="180.3" y="213.3" width="114.3" height="36.7" fill="#3b82f6" opacity="0.85"><title>ses_fca9230f1f02 weight=0.333 entries=24</title></rect><rect x="180.3" y="254.0" width="114.3" height="26.7" fill="#10b981" opacity="0.75"><title>ses_fca9230f1f02 duration_s=0.240</title></rect><rect x="298.7" y="195.0" width="114.3" height="55.0" fill="#3b82f6" opacity="0.85"><title>ses_64cee8bef85f weight=0.500 entries=36</title></rect><rect x="298.7" y="254.0" width="114.3" height="40.0" fill="#10b981" opacity="0.75"><title>ses_64cee8bef85f duration_s=0.360</title></rect><rect x="417.0" y="176.7" width="114.3" height="73.3" fill="#3b82f6" opacity="0.85"><title>ses_1b19400742c8 weight=0.667 entries=48</title></rect><rect x="417.0" y="254.0" width="114.3" height="53.3" fill="#10b981" opacity="0.75"><title>ses_1b19400742c8 duration_s=0.480</title></rect><rect x="535.3" y="158.3" width="114.3" height="91.7" fill="#3b82f6" opacity="0.85"><title>ses_fc9eee9dc33f weight=0.833 entries=60</title></rect><rect x="535.3" y="254.0" width="114.3" height="66.7" fill="#10b981" opacity="0.75"><title>ses_fc9eee9dc33f duration_s=0.600</title></rect><rect x="653.7" y="140.0" width="114.3" height="110.0" fill="#3b82f6" opacity="0.85"><title>ses_071e8b90788f weight=1.000 entries=72</title></rect><rect x="653.7" y="254.0" width="114.3" height="80.0" fill="#10b981" opacity="0.75"><title>ses_071e8b90788f duration_s=0.720</title></rect><circle cx="710.8" cy="134.0" r="3" fill="#ef4444"><title>active</title></circle><text x="60" y="300" font-size="9" fill="#555">ses_3cd601b51e98</text><text x="770" y="300" text-anchor="end" font-size="9" fill="#555">ses_071e8b90788f</text><rect x="60" y="298" width="10" height="10" fill="#3b82f6" opacity="0.85"/><text x="74" y="308" font-size="10" fill="#444">continuity_weight</text><rect x="190" y="298" width="10" height="10" fill="#10b981" opacity="0.75"/><text x="204" y="308" font-size="10" fill="#444">duration_s</text><circle cx="300" cy="303" r="3" fill="#ef4444"/><text x="308" y="308" font-size="10" fill="#444">active session</text><text x="790" y="314" text-anchor="end" font-size="9" fill="#999">V1122 v0.1.0 · 2026-08-04T03:41:12</text></svg>